<svg xmlns="http://www.w3.org/2000/svg" width="760" height="360" viewBox="0 0 760 360">
  <style>
    .bg { fill: #fbfaf7; }
    .title { font: 700 22px -apple-system, BlinkMacSystemFont, "Segoe UI", sans-serif; fill: #1f2528; }
    .label { font: 500 14px -apple-system, BlinkMacSystemFont, "Segoe UI", sans-serif; fill: #293236; }
    .value, .legend { font: 500 13px -apple-system, BlinkMacSystemFont, "Segoe UI", sans-serif; fill: #293236; }
    .heat-value { font: 700 16px -apple-system, BlinkMacSystemFont, "Segoe UI", sans-serif; fill: #fffdf8; }
  </style>
  <rect class="bg" width="100%" height="100%" />
  
    <text x="24" y="34" class="title">리액션 타입</text>
    <text x="24" y="60" class="value">전체 리액션 100건</text>
    <path d="M 190 190 L 276.01829803572656 270.77655849958524 A 118 118 0 0 0 190 72 Z" fill="#2f6f73" stroke="#fbfaf7" stroke-width="2" /><path d="M 190 190 L 74.09010441401473 212.1109951211155 A 118 118 0 0 0 276.01829803572656 270.77655849958524 Z" fill="#d99058" stroke="#fbfaf7" stroke-width="2" /><path d="M 190 190 L 103.98170196427341 109.22344150041476 A 118 118 0 0 0 74.09010441401473 212.1109951211155 Z" fill="#6b7fb8" stroke="#fbfaf7" stroke-width="2" /><path d="M 190 190 L 189.99999999999997 72 A 118 118 0 0 0 103.98170196427341 109.22344150041476 Z" fill="#b65f6b" stroke="#fbfaf7" stroke-width="2" />
    <circle cx="190" cy="190" r="55" fill="#fbfaf7" />
    <text x="190" y="186" text-anchor="middle" class="title">100</text>
    <text x="190" y="211" text-anchor="middle" class="value">응답</text>
    
      <rect x="380" y="113" width="14" height="14" rx="2" fill="#2f6f73" />
      <text x="404" y="126" class="label">좋아요</text>
      <text x="732" y="126" text-anchor="end" class="value">37명 (37%)</text>
      <rect x="380" y="143" width="14" height="14" rx="2" fill="#d99058" />
      <text x="404" y="156" class="label">박수</text>
      <text x="732" y="156" text-anchor="end" class="value">35명 (35%)</text>
      <rect x="380" y="173" width="14" height="14" rx="2" fill="#6b7fb8" />
      <text x="404" y="186" class="label">반짝임</text>
      <text x="732" y="186" text-anchor="end" class="value">15명 (15%)</text>
      <rect x="380" y="203" width="14" height="14" rx="2" fill="#b65f6b" />
      <text x="404" y="216" class="label">파도</text>
      <text x="732" y="216" text-anchor="end" class="value">13명 (13%)</text>
  
</svg>
